<?xml version="1.0" encoding="utf-8"?>
<!DOCTYPE svg PUBLIC "-//W3C//DTD SVG 1.1//EN" "http://www.w3.org/Graphics/SVG/1.1/DTD/svg11.dtd">
<svg class="logo" xmlns="http://www.w3.org/2000/svg" width="147" height="40" viewBox="0 0 147 40">
        <defs>
          <linearGradient x1=".759%" y1=".759%" y2="100%" id="a">
            <stop stop-color="#00B9FF" offset="0%" />
            <stop stop-color="#0AF" offset="100%" />
          </linearGradient>
        </defs>
        <g fill="none" fill-rule="evenodd">
          <path
            d="M4 10h20c2.996 0 2.996 2.99 2.996 2.99v22.709S27 39 24 39H3.731S3.205 40 2 40s-2-1-2-2 .779-2 2-2 1.731 1 1.731 1H23c2 0 2-2 2-2V14s0-2-2-2H5c-2 0-2 2-2 2v14.266S4 28.81 4 30s-1 2-2 2-2-.787-2-2 1-1.73 1-1.73V13s0-3 3-3zm23-3H1S0 7 0 6s1-1 1-1h7V1.927C8 .78 8.576 0 9.704 0h8.458C19.29 0 20 .779 20 1.927V5h7s1 0 1 1-1 1-1 1zm-9-5h-8v2.966h8V2zM9 16s0-1 1-1 1 1 1 1v17s0 1-1 1-1-1-1-1V16zm8 0s0-1 1-1 1 1 1 1v17s0 1-1 1-1-1-1-1V16z"
            fill="url(#a)" />
          <path
            d="M45.75 29.531c1.73 0 3.203-.61 4.422-1.828C51.39 26.484 52 25.01 52 23.281c0-1.729-.61-3.20 -1.828-4.422-1.219-1.218-2.693-1.828-4.422-1.828-1.73 0-3.203.61-4.422 1.828-1.219 1.22-1.828 2.693-1.828  4.422 0 1.73.61 3.203 1.828 4.422 1.219 1.219 2.693 1.828 4.422 1.828zM39.5 17.156l.063-.062c1.708-1.709 3.77-2.563 6.187-2.563 2.417 0 4.48.854 6.188 2.563 1.708 1.708 2.562 3.77 2.562 6.187 0 2.417-.854 4.48-2.563 6.188-1.708 1.708-3.77 2.562-6.187 2.562-2.417 0-4.48-.854-6.188-2.562C37.855 27.76 37 25.698 37 23.28V8.25c0-.344.122-.638.367-.883S37.907 7 38.25 7c.344 0 .638.122.883.367s.367.54.367.883v8.906zm21.563-6.375c0 .427-.154.795-.461 1.102-.308.307-.675.46-1.102.46-.427 0-.794-.153-1.102-.46a1.503 1.503 0 0 1-.46-1.102c0-.427.153-.794.46-1.101.308-.308.675-.461 1.102-.461.427 0 .794.153 1.102.46.307.308.46.675.46 1.102zm-2.813 5c0-.344.122-.638.367-.883.245-.244.54-.367.883-.367.344 0 .638.123.883.367.245.245.367.54.367.883v15c0 .344-.122.638-.367.883s-.54.367-.883.367c-.344 0-.638-.122-.883-.367a1.204 1.204 0 0 1-.367-.883v-15zm6.25 0c0-.344.122-.638.367-.883.245-.244.54-.367.883-.367.344 0 .638.123.883.367.245.245.367.54.367.883v1.016c1.563-1.51 3.437-2.266 5.625-2.266 2.24 0 4.154.795 5.742 2.383 1.589 1.589 2.383 3.503 2.383 5.742v8.125c0 .344-.122.638-.367.883s-.54.367-.883.367c-.344 0-.638-.122-.883-.367a1.204 1.204 0 0 1-.367-.883v-8.125c0-1.552-.55-2.877-1.648-3.976-1.1-1.1-2.425-1.649-3.977-1.649s-2.878.55-3.977 1.649C67.55 19.779 67 21.104 67 22.656v8.125c0 .344-.122.638-.367.883s-.54.367-.883.367c-.344 0-.638-.122-.883-.367a1.204 1.204 0 0 1-.367-.883v-15zm21.25 15c0 .344-.122.638-.367.883s-.54.367-.883.367c-.344 0-.638-.122-.883-.367a1.204 1.204 0 0 1-.367-.883v-15c0-.344.122-.638.367-.883.245-.244.54-.367.883-.367.344 0 .638.123.883.367.245.245.367.54.367.883v.328c1.24-1.052 2.698-1.578 4.375-1.578 1.896 0 3.516.672 4.86 2.016.28.281.536.578.765.89.23-.312.484-.609.766-.89 1.343-1.344 2.963-2.016 4.859-2.016s3.516.672 4.86 2.016c1.343 1.344 2.015 2.963 2.015 4.86v9.374c0 .344-.122.638-.367.883s-.54.367-.883.367c-.344 0-.638-.122-.883-.367a1.204 1.204 0 0 1-.367-.883v-9.375c0-1.208-.427-2.24-1.281-3.093-.854-.855-1.886-1.282-3.094-1.282s-2.24.427-3.094 1.282c-.854.854-1.281 1.885-1.281 3.093v9.375c0 .344-.122.638-.367.883s-.54.367-.883.367c-.344 0-.638-.122-.883-.367a1.204 1.204 0 0 1-.367-.883v-9.375c0-1.208-.427-2.24-1.281-3.093-.854-.855-1.886-1.282-3.094-1.282s-2.24.427-3.094 1.282c-.854.854-1.281 1.885-1.281 3.093v9.375zm33.75-13.75c-1.73 0-3.203.61-4.422 1.828-1.219 1.22-1.828 2.693-1.828 4.422 0 1.73.61 3.203 1.828 4.422 1.219 1.219 2.693 1.828 4.422 1.828 1.73 0 3.203-.61 4.422-1.828 1.219-1.219 1.828-2.693 1.828-4.422 0-1.729-.61-3.203-1.828-4.422-1.219-1.218-2.693-1.828-4.422-1.828zm6.25 12.375c-1.75 1.75-3.833 2.625-6.25 2.625s-4.48-.854-6.188-2.562c-1.708-1.709-2.562-3.771-2.562-6.188 0-2.416.854-4.479 2.563-6.187 1.708-1.709 3.77-2.563 6.187-2.563 2.417 0 4.48.854 6.188 2.563 1.708 1.708 2.562 3.77 2.562 6.187v7.5c0 .344-.122.638-.367.883s-.54.367-.883.367c-.344 0-.638-.122-.883-.367a1.204 1.204 0 0 1-.367-.883v-1.375zm5-13.625c0-.344.122-.638.367-.883.245-.244.54-.367.883-.367.344 0 .638.123.883.367.245.245.367.54.367.883v1.016c1.563-1.51 3.437-2.266 5.625-2.266 2.24 0 4.154.795 5.742 2.383 1.589 1.589 2.383 3.503 2.383 5.742v8.125c0 .344-.122.638-.367.883s-.54.367-.883.367c-.344 0-.638-.122-.883-.367a1.204 1.204 0 0 1-.367-.883v-8.125c0-1.552-.55-2.877-1.648-3.976-1.1-1.1-2.425-1.649-3.977-1.649s-2.878.55-3.977 1.649c-1.099 1.099-1.648 2.424-1.648 3.976v8.125c0 .344-.122.638-.367.883s-.54.367-.883.367c-.344 0-.638-.122-.883-.367a1.204 1.204 0 0 1-.367-.883v-15z"
            fill="#fff" />
        </g>
      </svg>