<?xml version="1.0" encoding="utf-8"?>
<!DOCTYPE svg PUBLIC "-//W3C//DTD SVG 1.1//EN" "http://www.w3.org/Graphics/SVG/1.1/DTD/svg11.dtd">

            <svg xmlns="http://www.w3.org/2000/svg" xmlns:xlink="http://www.w3.org/1999/xlink" width="19" height="16"
              viewBox="0 0 19 16">
              <defs>
                <path id="a2zba"
                  d="M355 1357.64c0 .2.15.36.34.36h2.32c.19 0 .34-.16.34-.36V1352l-1.7 1.8a2 2 0 0 1-1.3.63zm4 0c0 .2.15.36.34.36h2.32c.19 0 .34-.16.34-.36v-3.32a1.98 1.98 0 0 1-1.4-.63L359 1352zm4 .01c0 .2.15.35.34.35h2.32c.19 0 .34-.15.34-.35V1351l-2.67 2.77c-.1.1-.21.2-.33.28zm4-7.8v7.8c0 .2.15.35.34.35h2.32c.19 0 .34-.15.34-.35v-10.43l-.18-.17-.05-.05zm4.33-7.85h-.06l-3.32.15c-.15 0-.35.01-.51.17a.55.55 0 0 0-.12.17c-.17.33.06.55.17.66l.28.26.58.55-6.7 6.37-3-2.86a.98.98 0 0 0-.68-.26c-.26 0-.5.1-.68.26l-4 3.8a.88.88 0 0 0 0 1.3l.17.16c.18.17.42.27.68.27.26 0 .5-.1.68-.27l3.15-2.99 3 2.86a.99.99 0 0 0 1.36 0l7.56-7.18.86.81c.1.1.24.23.45.23.1 0 .18-.02.28-.07a.74.74 0 0 0 .16-.12c.17-.15.2-.36.2-.52l.1-2.05.06-1.03c.01-.21-.04-.38-.16-.5-.11-.11-.29-.17-.5-.17z" />
              </defs>
              <g>
                <g transform="translate(-353 -1342)">
                  <use fill="#fff" xlink:href="#a2zba" />
                </g>
              </g>
            </svg>